<?xml version="1.0" encoding="UTF-8" standalone="no"?>
<svg
   xmlns:dc="http://purl.org/dc/elements/1.1/"
   xmlns:cc="http://creativecommons.org/ns#"
   xmlns:rdf="http://www.w3.org/1999/02/22-rdf-syntax-ns#"
   xmlns:svg="http://www.w3.org/2000/svg"
   xmlns="http://www.w3.org/2000/svg"
   viewBox="0 0 275.33334 92.444664"
   height="92.444664"
   width="275.33334"
   xml:space="preserve"
   id="svg2"
   version="1.1"><metadata
     id="metadata8"><rdf:RDF><cc:Work
         rdf:about=""><dc:format>image/svg+xml</dc:format><dc:type
           rdf:resource="http://purl.org/dc/dcmitype/StillImage" /></cc:Work></rdf:RDF></metadata><defs
     id="defs6"><clipPath
       id="clipPath18"
       clipPathUnits="userSpaceOnUse"><path
         id="path16"
         d="M 0,69.333 H 206.5 V 0 H 0 Z" /></clipPath></defs><g
     transform="matrix(1.3333333,0,0,-1.3333333,0,92.444667)"
     id="g10"><g
       id="g12"><g
         clip-path="url(#clipPath18)"
         id="g14"><g
           transform="translate(42.0796,34.9668)"
           id="g20"><path
             id="path22"
             style="fill:#00dbff;fill-opacity:1;fill-rule:nonzero;stroke:none"
             d="m 0,0 c 0,-3.49 -2.825,-6.315 -6.315,-6.315 -3.485,0 -6.314,2.825 -6.314,6.315 0,3.485 2.829,6.314 6.314,6.314 C -2.825,6.314 0,3.485 0,0" /></g><g
           transform="translate(42.7671,34.9668)"
           id="g24"><path
             id="path26"
             style="fill:#00dbff;fill-opacity:1;fill-rule:nonzero;stroke:none"
             d="m 0,0 c 0,-3.87 -3.132,-7.003 -7.003,-7.003 -3.864,0 -7.002,3.133 -7.002,7.003 0,3.864 3.138,7.001 7.002,7.001 C -3.132,7.001 0,3.864 0,0" /></g><g
           transform="translate(76.752,42.9189)"
           id="g28"><path
             id="path30"
             style="fill:#ffffff;fill-opacity:1;fill-rule:nonzero;stroke:none"
             d="m 0,0 v -6.469 h -3.368 v 6.558 c 0,0.952 -0.145,1.651 -0.435,2.097 -0.29,0.446 -0.759,0.669 -1.405,0.669 -0.647,0 -1.22,-0.242 -1.718,-0.725 C -7.425,1.647 -7.673,0.937 -7.673,0 V -6.469 H -11.02 V 5.532 h 3.347 V 4.171 c 0.922,1.041 1.977,1.562 3.167,1.562 0.758,0 1.446,-0.223 2.064,-0.67 0.616,-0.445 1.082,-0.988 1.394,-1.628 0.461,0.729 1.082,1.294 1.862,1.696 0.782,0.401 1.566,0.602 2.354,0.602 1.413,0 2.551,-0.421 3.413,-1.26 C 7.443,3.632 7.875,2.417 7.875,0.825 V -6.469 H 4.507 V 0.089 C 4.507,1.933 3.83,2.855 2.477,2.855 1.808,2.855 1.228,2.613 0.736,2.13 0.246,1.647 0,0.937 0,0" /></g><g
           transform="translate(90.3369,42.4502)"
           id="g32"><path
             id="path34"
             style="fill:#ffffff;fill-opacity:1;fill-rule:nonzero;stroke:none"
             d="m 0,0 c 0,-0.981 0.279,-1.781 0.837,-2.398 0.558,-0.617 1.271,-0.926 2.142,-0.926 0.87,0 1.583,0.309 2.141,0.926 C 5.678,-1.781 5.956,-0.981 5.956,0 5.956,0.982 5.678,1.785 5.12,2.409 4.562,3.034 3.849,3.346 2.979,3.346 2.108,3.346 1.395,3.034 0.837,2.409 0.279,1.785 0,0.982 0,0 M 9.325,0 C 9.325,-1.74 8.723,-3.205 7.518,-4.395 6.313,-5.584 4.8,-6.179 2.979,-6.179 c -1.823,0 -3.335,0.595 -4.541,1.784 -1.204,1.19 -1.806,2.655 -1.806,4.395 0,1.74 0.602,3.208 1.806,4.406 1.206,1.197 2.718,1.796 4.541,1.796 C 4.8,6.202 6.313,5.603 7.518,4.406 8.723,3.208 9.325,1.74 9.325,0" /></g><g
           transform="translate(105.4385,42.4395)"
           id="g36"><path
             id="path38"
             style="fill:#ffffff;fill-opacity:1;fill-rule:nonzero;stroke:none"
             d="m 0,0 c 0,-0.975 0.271,-1.77 0.814,-2.387 0.543,-0.617 1.202,-0.926 1.975,-0.926 0.774,0 1.449,0.309 2.029,0.926 0.58,0.617 0.87,1.409 0.87,2.376 0,0.966 -0.282,1.777 -0.847,2.431 C 4.275,3.074 3.6,3.402 2.813,3.402 2.022,3.402 1.357,3.078 0.814,2.431 0.271,1.784 0,0.974 0,0 m 3.614,6.212 c 1.457,0 2.729,-0.568 3.815,-1.706 1.085,-1.138 1.628,-2.599 1.628,-4.383 0,-1.785 -0.558,-3.28 -1.673,-4.484 -1.116,-1.205 -2.383,-1.807 -3.803,-1.807 -1.421,0 -2.6,0.587 -3.536,1.762 V -5.99 h -3.346 v 16.553 h 3.346 v -5.89 c 0.922,1.026 2.111,1.539 3.569,1.539" /></g><path
           id="path40"
           style="fill:#ffffff;fill-opacity:1;fill-rule:nonzero;stroke:none"
           d="m 120.34,36.45 h -3.346 v 12.001 h 3.346 z m -3.067,13.529 c -0.379,0.379 -0.569,0.844 -0.569,1.395 0,0.549 0.19,1.014 0.569,1.394 0.378,0.379 0.843,0.568 1.394,0.568 0.55,0 1.015,-0.189 1.394,-0.568 0.379,-0.38 0.569,-0.845 0.569,-1.394 0,-0.551 -0.19,-1.016 -0.569,-1.395 -0.379,-0.379 -0.844,-0.569 -1.394,-0.569 -0.551,0 -1.016,0.19 -1.394,0.569" /><path
           id="path42"
           style="fill:#ffffff;fill-opacity:1;fill-rule:nonzero;stroke:none"
           d="m 126.854,36.45 h -3.346 v 16.552 h 3.346 z" /><g
           transform="translate(137.2041,45.3057)"
           id="g44"><path
             id="path46"
             style="fill:#ffffff;fill-opacity:1;fill-rule:nonzero;stroke:none"
             d="m 0,0 c -0.461,0.387 -1.023,0.58 -1.685,0.58 -0.661,0 -1.267,-0.201 -1.817,-0.602 -0.551,-0.402 -0.87,-0.945 -0.96,-1.629 H 0.803 C 0.729,-0.937 0.461,-0.387 0,0 M 3.212,-7.116 C 1.858,-8.395 0.27,-9.034 -1.551,-9.034 c -1.821,0 -3.327,0.561 -4.516,1.684 -1.191,1.122 -1.786,2.628 -1.786,4.517 0,1.889 0.607,3.391 1.819,4.506 1.212,1.116 2.643,1.673 4.294,1.673 1.651,0 3.051,-0.498 4.205,-1.494 1.152,-0.997 1.728,-2.365 1.728,-4.105 v -1.785 h -8.744 c 0.104,-0.654 0.446,-1.19 1.027,-1.606 0.58,-0.416 1.234,-0.624 1.962,-0.624 1.175,0 2.142,0.393 2.901,1.182 z" /></g><g
           transform="translate(151.6611,43.2534)"
           id="g48"><path
             id="path50"
             style="fill:#ffffff;fill-opacity:1;fill-rule:nonzero;stroke:none"
             d="M 0,0 H 6.804 C 6.804,0.996 6.492,1.762 5.867,2.298 5.242,2.833 4.473,3.101 3.559,3.101 2.644,3.101 1.822,2.822 1.094,2.264 0.364,1.707 0,0.952 0,0 M 9.303,-1.963 H 0 c 0.06,-0.863 0.454,-1.558 1.183,-2.086 0.728,-0.528 1.561,-0.792 2.498,-0.792 1.487,0 2.617,0.469 3.39,1.406 L 8.499,-4.997 C 7.22,-6.321 5.555,-6.982 3.503,-6.982 c -1.666,0 -3.083,0.554 -4.25,1.662 -1.168,1.108 -1.751,2.595 -1.751,4.461 0,1.866 0.595,3.35 1.784,4.45 1.19,1.101 2.592,1.651 4.205,1.651 1.613,0 2.986,-0.487 4.116,-1.461 1.13,-0.974 1.696,-2.316 1.696,-4.026 z" /></g><g
           transform="translate(169.9316,45.9751)"
           id="g52"><path
             id="path54"
             style="fill:#ffffff;fill-opacity:1;fill-rule:nonzero;stroke:none"
             d="M 0,0 C -1.235,0 -2.164,-0.402 -2.789,-1.205 -3.413,-2.008 -3.725,-3.086 -3.725,-4.439 V -9.525 H -6.224 V 2.342 h 2.499 v -2.387 c 0.401,0.744 0.948,1.353 1.639,1.83 0.691,0.475 1.424,0.721 2.197,0.736 L 0.134,0 Z" /></g><g
           transform="translate(179.5898,40.8667)"
           id="g56"><path
             id="path58"
             style="fill:#ffffff;fill-opacity:1;fill-rule:nonzero;stroke:none"
             d="m 0,0 v 1.004 h -2.812 c -1.798,0 -2.698,-0.566 -2.698,-1.696 0,-0.579 0.224,-1.022 0.669,-1.327 0.445,-0.305 1.068,-0.457 1.862,-0.457 0.796,0 1.492,0.223 2.087,0.669 C -0.297,-1.361 0,-0.759 0,0 M 2.499,-4.417 H 0.224 v 1.584 c -0.982,-1.175 -2.298,-1.762 -3.949,-1.762 -1.235,0 -2.256,0.349 -3.067,1.048 -0.812,0.699 -1.216,1.632 -1.216,2.799 0,1.168 0.431,2.042 1.294,2.622 0.862,0.58 2.028,0.87 3.502,0.87 H 0.021 V 3.19 c 0,1.576 -0.876,2.364 -2.63,2.364 -1.101,0 -2.246,-0.401 -3.436,-1.204 L -7.16,5.911 c 1.442,1.145 3.078,1.718 4.907,1.718 1.398,0 2.539,-0.354 3.425,-1.06 C 2.056,5.863 2.499,4.751 2.499,3.234 Z" /></g><g
           transform="translate(72.746,24.6768)"
           id="g60"><path
             id="path62"
             style="fill:#adadad;fill-opacity:1;fill-rule:nonzero;stroke:none"
             d="M 0,0 C -0.615,0.637 -1.37,0.955 -2.265,0.955 -3.16,0.955 -3.915,0.637 -4.53,0 c -0.615,-0.637 -0.923,-1.409 -0.923,-2.316 0,-0.909 0.308,-1.681 0.923,-2.318 0.615,-0.637 1.37,-0.955 2.265,-0.955 0.895,0 1.65,0.318 2.265,0.955 0.615,0.637 0.923,1.409 0.923,2.318 C 0.923,-1.409 0.615,-0.637 0,0 m 1.117,-5.646 c -0.912,-0.891 -2.039,-1.336 -3.382,-1.336 -1.342,0 -2.469,0.445 -3.381,1.336 -0.912,0.89 -1.368,2 -1.368,3.33 0,1.329 0.456,2.438 1.368,3.329 0.912,0.89 2.039,1.336 3.381,1.336 1.343,0 2.47,-0.446 3.382,-1.336 0.912,-0.891 1.368,-2 1.368,-3.329 0,-1.33 -0.456,-2.44 -1.368,-3.33" /></g><g
           transform="translate(79.8832,25.6182)"
           id="g64"><path
             id="path66"
             style="fill:#adadad;fill-opacity:1;fill-rule:nonzero;stroke:none"
             d="m 0,0 c -0.443,0 -0.807,-0.09 -1.091,-0.27 -0.284,-0.181 -0.426,-0.455 -0.426,-0.82 0,-0.366 0.142,-0.645 0.426,-0.839 0.284,-0.194 0.889,-0.402 1.814,-0.626 0.924,-0.223 1.621,-0.538 2.09,-0.942 0.469,-0.404 0.704,-1 0.704,-1.787 0,-0.787 -0.297,-1.427 -0.891,-1.917 -0.594,-0.49 -1.372,-0.736 -2.336,-0.736 -1.411,0 -2.663,0.487 -3.756,1.458 l 0.955,1.15 c 0.912,-0.792 1.859,-1.188 2.84,-1.188 0.49,0 0.879,0.105 1.168,0.316 0.288,0.211 0.432,0.491 0.432,0.839 0,0.348 -0.135,0.62 -0.407,0.813 -0.27,0.195 -0.738,0.37 -1.4,0.529 -0.662,0.16 -1.166,0.305 -1.51,0.439 -0.343,0.134 -0.649,0.308 -0.916,0.522 -0.534,0.405 -0.8,1.025 -0.8,1.859 0,0.835 0.303,1.478 0.91,1.93 0.606,0.452 1.357,0.677 2.252,0.677 0.576,0 1.148,-0.095 1.716,-0.284 0.568,-0.189 1.058,-0.456 1.471,-0.8 L 2.433,-0.825 C 2.166,-0.585 1.805,-0.387 1.349,-0.231 0.893,-0.077 0.442,0 0,0" /></g><g
           transform="translate(85.2836,17.7852)"
           id="g68"><path
             id="path70"
             style="fill:#adadad;fill-opacity:1;fill-rule:nonzero;stroke:none"
             d="M 0,0 V 9.021 H 1.523 V 1.445 H 5.64 V 0 Z" /></g><g
           transform="translate(98.7631,24.6768)"
           id="g72"><path
             id="path74"
             style="fill:#adadad;fill-opacity:1;fill-rule:nonzero;stroke:none"
             d="M 0,0 C -0.615,0.637 -1.37,0.955 -2.265,0.955 -3.16,0.955 -3.915,0.637 -4.53,0 c -0.616,-0.637 -0.923,-1.409 -0.923,-2.316 0,-0.909 0.307,-1.681 0.923,-2.318 0.615,-0.637 1.37,-0.955 2.265,-0.955 0.895,0 1.65,0.318 2.265,0.955 0.615,0.637 0.923,1.409 0.923,2.318 C 0.923,-1.409 0.615,-0.637 0,0 m 1.116,-5.646 c -0.912,-0.891 -2.039,-1.336 -3.381,-1.336 -1.342,0 -2.469,0.445 -3.381,1.336 -0.913,0.89 -1.369,2 -1.369,3.33 0,1.329 0.456,2.438 1.369,3.329 0.912,0.89 2.039,1.336 3.381,1.336 1.342,0 2.469,-0.446 3.381,-1.336 0.912,-0.891 1.368,-2 1.368,-3.329 0,-1.33 -0.456,-2.44 -1.368,-3.33" /></g><g
           transform="translate(110.2426,23.2822)"
           id="g76"><path
             id="path78"
             style="fill:#adadad;fill-opacity:1;fill-rule:nonzero;stroke:none"
             d="m 0,0 c 0.258,0.354 0.387,0.71 0.387,1.071 0,0.362 -0.138,0.669 -0.413,0.923 -0.276,0.254 -0.624,0.381 -1.045,0.381 -0.74,0 -1.356,-0.379 -1.846,-1.136 l -1.226,0.71 c 0.396,0.594 0.832,1.041 1.31,1.342 0.478,0.302 1.093,0.452 1.846,0.452 0.752,0 1.413,-0.239 1.98,-0.717 C 1.562,2.549 1.845,1.898 1.845,1.071 1.845,0.607 1.725,0.164 1.483,-0.258 1.243,-0.68 0.8,-1.222 0.154,-1.884 L -1.962,-4.039 H 2.129 V -5.497 H -4.04 v 1.29 l 2.736,2.749 C -0.693,-0.839 -0.259,-0.352 0,0" /></g><g
           transform="translate(115.8237,24.793)"
           id="g80"><path
             id="path82"
             style="fill:#adadad;fill-opacity:1;fill-rule:nonzero;stroke:none"
             d="m 0,0 c -0.357,-0.62 -0.536,-1.433 -0.536,-2.439 0,-1.007 0.179,-1.82 0.536,-2.44 0.356,-0.619 0.914,-0.929 1.671,-0.929 0.757,0 1.31,0.308 1.658,0.923 0.349,0.615 0.525,1.43 0.525,2.446 0,1.014 -0.176,1.83 -0.525,2.445 C 2.981,0.621 2.428,0.929 1.671,0.929 0.914,0.929 0.356,0.619 0,0 m -1.091,-5.84 c -0.61,0.847 -0.916,1.981 -0.916,3.401 0,1.419 0.306,2.552 0.916,3.4 0.612,0.848 1.531,1.271 2.762,1.271 1.23,0 2.151,-0.423 2.762,-1.271 0.611,-0.848 0.917,-1.981 0.917,-3.4 0,-1.42 -0.306,-2.554 -0.917,-3.401 -0.611,-0.847 -1.532,-1.271 -2.762,-1.271 -1.231,0 -2.15,0.424 -2.762,1.271" /></g><g
           transform="translate(122.308,26.8057)"
           id="g84"><path
             id="path86"
             style="fill:#adadad;fill-opacity:1;fill-rule:nonzero;stroke:none"
             d="M 0,0 H 3.278 V -9.02 H 1.833 v 7.666 l -1.833,0 z" /></g><g
           transform="translate(131.142,22.25)"
           id="g88"><path
             id="path90"
             style="fill:#adadad;fill-opacity:1;fill-rule:nonzero;stroke:none"
             d="m 0,0 c -0.521,0 -0.955,-0.144 -1.303,-0.432 -0.348,-0.289 -0.523,-0.663 -0.523,-1.123 0,-0.461 0.168,-0.856 0.504,-1.187 0.335,-0.331 0.757,-0.497 1.264,-0.497 0.508,0 0.929,0.148 1.265,0.445 0.336,0.297 0.503,0.676 0.503,1.136 0,0.46 -0.154,0.851 -0.464,1.175 C 0.936,-0.161 0.52,0 0,0 m 0.277,3.355 c -0.799,0 -1.388,-0.27 -1.767,-0.812 -0.379,-0.542 -0.574,-1.273 -0.581,-2.194 0.215,0.241 0.525,0.466 0.929,0.677 0.405,0.211 0.852,0.317 1.342,0.317 0.809,0 1.486,-0.27 2.033,-0.807 0.546,-0.538 0.82,-1.252 0.82,-2.142 0,-0.891 -0.295,-1.607 -0.885,-2.149 -0.589,-0.542 -1.331,-0.813 -2.226,-0.813 -1.445,0 -2.443,0.645 -2.994,1.935 -0.309,0.74 -0.465,1.575 -0.465,2.504 0,0.93 0.099,1.703 0.297,2.323 0.199,0.62 0.469,1.11 0.814,1.471 0.671,0.706 1.494,1.059 2.47,1.059 0.977,0 1.861,-0.306 2.653,-0.916 L 1.955,2.685 C 1.758,2.856 1.493,3.012 1.162,3.149 0.83,3.287 0.536,3.355 0.277,3.355" /></g><g
           transform="translate(49.4209,49.8354)"
           id="g92"><path
             id="path94"
             style="fill:#00dbff;fill-opacity:1;fill-rule:nonzero;stroke:none"
             d="m 0,0 c 0,-2.466 -1.999,-4.465 -4.465,-4.465 -2.467,0 -4.466,1.999 -4.466,4.465 0,2.466 1.999,4.465 4.466,4.465 C -1.999,4.465 0,2.466 0,0" /></g><g
           transform="translate(28.4868,44.5718)"
           id="g96"><path
             id="path98"
             style="fill:#00dbff;fill-opacity:1;fill-rule:nonzero;stroke:none"
             d="m 0,0 c 0,-1.545 -1.253,-2.798 -2.798,-2.798 -1.546,0 -2.799,1.253 -2.799,2.798 0,1.545 1.253,2.798 2.799,2.798 C -1.253,2.798 0,1.545 0,0" /></g><g
           transform="translate(42.8805,19.3418)"
           id="g100"><path
             id="path102"
             style="fill:#00dbff;fill-opacity:1;fill-rule:nonzero;stroke:none"
             d="m 0,0 c 0,-1.988 -1.611,-3.599 -3.599,-3.599 -1.988,0 -3.6,1.611 -3.6,3.599 0,1.988 1.612,3.599 3.6,3.599 C -1.611,3.599 0,1.988 0,0" /></g><g
           transform="translate(49.1899,34.5273)"
           id="g104"><path
             id="path106"
             style="fill:#00dbff;fill-opacity:1;fill-rule:nonzero;stroke:none"
             d="M 0,0 C -1.191,0.983 -1.361,2.748 -0.377,3.939 0.607,5.131 2.371,5.3 3.563,4.316 4.754,3.333 4.923,1.569 3.939,0.377 2.955,-0.815 1.191,-0.983 0,0" /></g><g
           transform="translate(23.8901,31.3701)"
           id="g108"><path
             id="path110"
             style="fill:#00dbff;fill-opacity:1;fill-rule:nonzero;stroke:none"
             d="m 0,0 c 0,-2.446 -1.983,-4.429 -4.429,-4.429 -2.447,0 -4.429,1.983 -4.429,4.429 0,2.447 1.982,4.429 4.429,4.429 C -1.983,4.429 0,2.447 0,0" /></g></g></g></g></svg>